<svg width="109" height="25" viewBox="0 0 109 25" fill="none" xmlns="http://www.w3.org/2000/svg">
<path d="M82.7715 16.7338C82.7715 17.6152 82.7482 18.4975 82.7813 19.3773C82.7978 19.8163 82.6381 20.0788 82.3434 20.3291C80.2814 22.0809 76.2843 22.2039 74.1539 20.5591C72.9815 19.6539 72.3287 18.3677 72.0225 16.8537C71.5866 14.6986 71.5561 12.5472 72.2832 10.459C73.1563 7.95165 74.8669 6.60121 77.2579 6.32582C78.9397 6.1322 80.5719 6.34287 82.0367 7.38357C82.7627 7.89929 82.7945 8.08225 82.3797 8.78068C81.8786 9.62402 81.523 9.75694 80.8611 9.26104C80.0517 8.65435 79.1778 8.32871 78.1996 8.3257C76.3734 8.3198 75.1672 9.2566 74.6407 11.1879C74.1177 13.106 74.1282 15.0524 74.6604 16.961C75.335 19.3805 77.9967 20.4748 79.9939 19.2176C80.2356 19.0654 80.3141 18.8823 80.3104 18.589C80.2981 17.6603 80.292 16.7308 80.3124 15.8026C80.3207 15.4256 80.2061 15.2933 79.8694 15.3171C79.505 15.3431 79.1377 15.3297 78.7718 15.3214C77.9773 15.3035 77.3783 14.3242 77.6397 13.5016C77.7142 13.2677 77.8689 13.3225 78.0047 13.3224C79.4471 13.3205 80.8895 13.3407 82.3316 13.3191C82.7354 13.313 82.7834 13.5085 82.777 13.8758C82.7605 14.8282 82.7715 15.7811 82.7715 16.7338Z" fill="#3C3F40"/>
<path d="M102.672 6.27662C105.008 6.24191 106.819 7.43144 107.588 9.45744C107.768 9.93036 107.698 10.183 107.286 10.4169C106.242 11.0098 105.746 10.8707 105.118 9.74634C104.319 8.3147 102.375 7.82123 101.064 8.71686C100.164 9.33115 100.106 10.8683 100.966 11.5808C101.509 12.0294 102.152 12.2467 102.786 12.473C103.85 12.8528 104.921 13.2109 105.926 13.7619C108.333 15.0809 108.715 18.1875 106.724 20.2162C106.324 20.624 105.874 20.9543 105.368 21.1642C103.364 21.9948 101.359 21.9475 99.3945 21.0332C98.3888 20.5652 97.673 19.7654 97.6083 18.4651C97.5619 17.5315 98.397 16.7464 99.2268 16.8892C99.4778 16.9324 99.4539 17.1234 99.505 17.2896C100.183 19.5 102.868 20.4674 104.626 19.1346C105.706 18.3155 105.699 16.6234 104.602 15.8426C103.943 15.3743 103.196 15.1342 102.451 14.8982C101.416 14.5702 100.39 14.215 99.4716 13.5697C97.1603 11.9456 97.3027 8.36966 99.7331 6.96715C100.653 6.43581 101.65 6.28854 102.672 6.27662Z" fill="#3C3F40"/>
<path d="M22.4331 3.21147C22.5353 3.48862 22.3388 3.6003 22.1888 3.72215C18.8426 6.4378 16.4927 10.0865 14.3637 13.9429C12.8474 16.6897 10.9441 19.0149 8.33921 20.5312C5.89399 21.9541 3.33163 22.5048 0.624419 21.548C0.3951 21.4668 0.0254403 21.5089 0.0136719 21.0585C0.719996 20.6092 1.54683 20.6674 2.29953 20.386C4.15912 19.6911 5.82741 18.6649 7.29586 17.2184C8.83558 15.7017 10.0764 13.927 11.1534 11.9944C12.814 9.01438 14.8861 6.47685 17.677 4.74203C18.9623 3.94319 20.3416 3.42104 21.8004 3.16929C22.0106 3.13312 22.2282 3.09349 22.4331 3.21147Z" fill="#F4A938"/>
<path d="M22.4328 3.21252C21.2112 3.46643 20.0029 3.75248 18.8503 4.30721C16.2964 5.53649 14.3205 7.53223 12.6351 9.92565C11.4737 11.575 10.6144 13.4561 9.4027 15.0696C7.04609 18.2078 4.17383 20.3848 0.463226 21.0278C0.315407 21.0533 0.163296 21.0493 0.0132769 21.0594C-0.050991 20.8104 0.131987 20.7209 0.26353 20.6156C3.4286 18.0778 5.7318 14.7114 7.74306 11.0701C8.90656 8.96404 10.2101 6.99373 11.9649 5.43429C14.1444 3.49755 16.585 2.32255 19.4248 2.3363C20.2915 2.34045 21.1397 2.50278 21.9555 2.83045C22.1363 2.90307 22.4108 2.87899 22.4328 3.21252Z" fill="#EF4B3C"/>
<path d="M28.1888 13.9036C28.1888 11.6414 28.1985 9.37926 28.1807 7.11717C28.1771 6.65674 28.2367 6.44417 28.7289 6.45007C31.1607 6.47904 33.593 6.47359 36.0249 6.45337C36.4412 6.44979 36.5713 6.56846 36.5691 7.04382C36.5625 8.45797 36.5824 8.45813 35.2893 8.45813C33.9334 8.45813 32.5773 8.47392 31.2218 8.44837C30.815 8.4406 30.6587 8.5428 30.6745 9.03007C30.7086 10.0764 30.7048 11.1258 30.6757 12.1726C30.663 12.6314 30.7709 12.785 31.206 12.7741C32.4967 12.7413 33.7887 12.7752 35.0797 12.7546C35.4642 12.7484 35.6507 12.8048 35.6478 13.3196C35.6398 14.7434 35.6647 14.7435 34.3717 14.7435C33.2955 14.7435 32.2191 14.76 31.1435 14.7345C30.7715 14.7259 30.6709 14.8611 30.6775 15.2594C30.698 16.4973 30.6995 17.736 30.6769 18.9738C30.6694 19.389 30.7989 19.4901 31.1549 19.4859C32.7258 19.4672 34.2973 19.4608 35.868 19.4941C36.1409 19.4998 36.6006 19.1911 36.6876 19.8021C36.8098 20.6605 36.4753 21.3444 35.9112 21.4552C35.7642 21.4842 35.6108 21.4804 35.4606 21.4802C33.2222 21.4779 30.9838 21.459 28.7458 21.4825C28.2777 21.4874 28.1753 21.3167 28.1796 20.833C28.2 18.5234 28.1888 16.2135 28.1888 13.9036Z" fill="#3C3F40"/>
<path d="M39.2622 13.9628C39.2622 11.7016 39.2749 9.44024 39.2527 7.17946C39.2476 6.65788 39.3174 6.3866 39.8703 6.45092C40.4637 6.52025 41.2595 6.24583 41.6136 6.57993C42.0266 6.96932 41.7422 7.87398 41.7441 8.55243C41.7533 11.932 41.7576 15.312 41.7148 18.6912C41.7061 19.3765 41.9036 19.507 42.4679 19.4915C43.8868 19.4523 45.3075 19.5031 46.7269 19.4767C47.1591 19.4686 47.2646 19.6195 47.2626 20.0799C47.2566 21.4806 47.2746 21.4807 46.0367 21.4807C43.9714 21.4807 41.9059 21.4619 39.8411 21.4945C39.3482 21.5023 39.234 21.3447 39.2402 20.8178C39.2669 18.533 39.2516 16.2478 39.2516 13.9628H39.2622Z" fill="#3C3F40"/>
<path d="M12.1083 0.472851C12.1538 0.652961 12.0307 0.729203 11.9302 0.811589C10.235 2.19848 9.02663 4.04461 7.94034 6.00275C7.31669 7.1271 6.60897 8.17013 5.65709 8.9819C4.29184 10.146 2.77951 10.7844 1.02913 10.4677C0.712628 10.4103 0.333179 10.44 0.134766 10.0446C0.726339 9.6272 1.44337 9.61097 2.07127 9.27899C3.53342 8.50611 4.66883 7.34802 5.56539 5.88159C6.28877 4.69853 6.96661 3.47755 7.92975 2.50157C8.88218 1.53666 9.96495 0.827494 11.2324 0.501124C11.518 0.427648 11.8122 0.31699 12.1083 0.472851Z" fill="#F4A938"/>
<path d="M22.4804 14.807C22.6421 15.0536 22.4266 15.1417 22.3112 15.2361C20.5273 16.6952 19.3071 18.6721 18.1556 20.7189C17.0291 22.7211 15.5644 24.2862 13.4114 24.8084C12.4366 25.0448 11.4222 25.1798 10.5078 24.489C10.6715 24.3064 10.9042 24.3075 11.1017 24.2141C13.251 23.646 14.8335 22.2188 16.0117 20.205C17.0112 18.4965 18.0544 16.8406 19.6896 15.7848C20.5527 15.228 21.4603 14.8192 22.4804 14.807Z" fill="#F4A938"/>
<path d="M12.1114 0.472665C9.40786 0.903228 7.58479 2.70192 6.20092 5.16047C5.16068 7.00881 3.90304 8.58602 2.0546 9.48189C1.43974 9.77987 0.802748 9.96571 0.137852 10.0442C0.113289 9.86599 0.240395 9.79549 0.339748 9.71457C1.99975 8.35908 3.20889 6.57365 4.26892 4.65082C4.99358 3.33672 5.83126 2.1393 6.99465 1.26235C8.38716 0.212609 9.89469 -0.27666 11.5789 0.15907C11.7746 0.2096 12.0173 0.196256 12.1114 0.472665Z" fill="#EF4B3C"/>
<path d="M22.4821 14.8082C21.5996 15.1627 20.6576 15.3236 19.8372 15.884C18.491 16.804 17.4531 18.0445 16.626 19.5193C15.7688 21.0479 14.7747 22.4302 13.3577 23.3847C12.6517 23.8602 11.9085 24.2044 11.0919 24.3497C10.932 24.3846 10.7315 24.5406 10.7004 24.1896C12.4935 22.6775 13.7626 20.6847 14.9382 18.5958C16.0664 16.591 17.5622 15.0698 19.7166 14.5524C20.6471 14.3288 21.5931 14.2923 22.4821 14.8082Z" fill="#EF4B3C"/>
<path d="M10.7013 24.1893C10.7906 24.3666 10.9522 24.3266 11.093 24.3495C10.9285 24.5476 10.7065 24.4529 10.5103 24.4898C10.4565 24.2983 10.5692 24.2363 10.7013 24.1893Z" fill="#F3774C"/>
<path d="M65.5089 13.4922C64.5956 13.7289 63.6678 13.5875 62.7471 13.6334C62.4333 13.6492 62.405 13.4556 62.4078 13.1856C62.4155 12.4726 62.4104 11.7591 62.4104 11.0457C62.4104 10.3562 62.4174 9.66654 62.4073 8.97718C62.4028 8.67664 62.438 8.47582 62.7825 8.48876C63.6617 8.52147 64.5451 8.43294 65.419 8.61379C66.5729 8.85244 67.1553 9.61589 67.1898 10.9402C67.2271 12.3711 66.6892 13.1861 65.5089 13.4922ZM69.9693 20.9014C69.0169 18.9888 68.2818 16.9466 67.1578 15.1395C67.1696 15.1166 67.1751 15.0907 67.1892 15.082C67.2832 15.0254 67.3771 14.9679 67.4742 14.9186C68.548 14.3725 69.3094 13.5183 69.6095 12.227C70.2435 9.49932 68.8502 7.15626 66.2246 6.64819C64.2427 6.2647 62.2302 6.54702 60.2332 6.46219C59.8333 6.4451 59.9263 6.76431 59.9259 7.00414C59.9219 9.26596 59.9234 11.5276 59.9234 13.7895C59.9234 16.1703 59.9338 18.5512 59.9144 20.9319C59.9108 21.3741 60.0216 21.5208 60.4211 21.4893C60.8923 21.4521 61.3696 21.4485 61.8402 21.4899C62.2859 21.5288 62.4314 21.3785 62.4212 20.866C62.3907 19.3192 62.4072 17.7711 62.414 16.2236C62.4149 16.0105 62.3231 15.7546 62.6551 15.6666C63.9389 15.3265 65.0776 15.8851 65.6767 17.1913C66.1629 18.2518 66.7109 19.2868 67.1006 20.3896C67.6068 21.822 68.5417 21.811 69.77 21.4697C70.074 21.3852 70.1234 21.2108 69.9693 20.9014Z" fill="#3C3F40"/>
<path d="M92.0077 15.5412C90.6955 15.5259 89.383 15.5332 88.0708 15.537C87.8253 15.5378 87.6451 15.5287 87.7457 15.1492C88.3204 12.9821 89.0262 10.8743 90.0364 8.72872C91.0396 10.8393 91.744 12.9244 92.3187 15.0674C92.4054 15.3906 92.3584 15.5454 92.0077 15.5412ZM95.9436 20.8381C95.2448 16.4804 94.0177 12.3302 92.2651 8.34063C91.6242 6.88156 90.8886 6.16121 89.4008 6.44766C88.983 6.52789 88.719 6.61129 88.5022 7.03884C86.3898 11.2061 84.9974 15.6531 84.2292 20.3464C84.0419 21.4909 84.0499 21.4925 85.1135 21.4925C85.4146 21.4925 85.72 21.4576 86.016 21.5008C86.4439 21.5634 86.5636 21.3258 86.6246 20.919C86.765 19.981 86.9478 19.0506 87.0863 18.1124C87.1459 17.7088 87.2979 17.5784 87.6775 17.5853C89.1828 17.6125 90.6898 17.6306 92.1939 17.5793C92.773 17.5596 92.9856 17.7648 93.0418 18.3805C93.098 18.9924 93.258 19.592 93.3603 20.1995C93.5778 21.4919 93.5745 21.4925 94.7601 21.4925C94.9751 21.4925 95.1936 21.4659 95.4048 21.4978C95.8934 21.5714 96.0337 21.4005 95.9436 20.8381Z" fill="#3C3F40"/>
<path d="M52.5729 19.8414C51.8295 19.9903 51.1606 19.6966 50.8996 19.1069C50.5949 18.4178 50.7781 17.5151 51.3507 16.9753C51.9824 16.38 52.7654 16.212 53.5509 16.0608C53.6352 16.0446 53.7218 16.0434 53.8073 16.0347C54.742 15.9378 54.742 15.9378 54.742 16.9989C54.7419 18.3413 53.7818 19.5993 52.5729 19.8414ZM57.5116 20.501C57.2771 20.1312 57.2226 19.6653 57.1848 19.2087C57.0189 17.2116 57.1569 15.2099 57.0993 13.2117C57.0482 11.4417 56.2287 10.1707 54.7204 9.72588C52.5281 9.07932 50.5057 9.58352 48.674 11.0502C48.5538 11.1464 48.366 11.2586 48.402 11.4203C48.5245 11.9699 48.8329 12.3969 49.2414 12.7322C49.5931 13.0208 49.8771 12.8293 50.169 12.5819C50.7002 12.1318 51.2599 11.7321 51.917 11.5362C53.7463 10.9904 54.8204 11.9151 54.7502 13.9484C54.7377 14.3107 54.6494 14.4503 54.3143 14.4654C53.8209 14.4874 53.3268 14.5468 52.8382 14.6282C51.6838 14.8204 50.5483 15.0971 49.5752 15.8677C48.5426 16.6853 48.1056 18.0385 48.4104 19.3974C48.6849 20.6214 49.6138 21.4676 50.8903 21.6416C52.407 21.8482 53.7479 21.4749 54.7765 20.097C55.2705 21.7069 55.8311 21.9711 57.2188 21.3038C57.2385 21.2944 57.2565 21.28 57.2767 21.2723C57.6507 21.1253 57.7862 20.934 57.5116 20.501Z" fill="#3C3F40"/>
</svg>

